<mxfile host="app.diagrams.net" modified="2024-01-15T12:24:44.033Z" agent="Mozilla/5.0 (X11; Linux x86_64; rv:121.0) Gecko/20100101 Firefox/121.0" etag="epDxaT0aDrE0S_MzC9X6" version="22.1.18" type="device">
  <diagram name="Page-1" id="-q-fvx6Urr765f_wn-v6">
    <mxGraphModel dx="1114" dy="551" grid="1" gridSize="10" guides="1" tooltips="1" connect="1" arrows="1" fold="1" page="1" pageScale="1" pageWidth="850" pageHeight="1100" math="0" shadow="0">
      <root>
        <mxCell id="0" />
        <mxCell id="1" parent="0" />
        <mxCell id="VS5uHlb_sq7G1ENyeqIT-2" value="&lt;div style=&quot;&quot;&gt;&lt;font style=&quot;font-size: 12px;&quot;&gt;&lt;b&gt;&lt;font style=&quot;font-size: 12px;&quot;&gt;Mode Switch Mode/&lt;/font&gt;&lt;/b&gt;&lt;/font&gt;&lt;/div&gt;&lt;div style=&quot;&quot;&gt;&lt;font style=&quot;font-size: 12px;&quot;&gt;&lt;b&gt;&lt;font style=&quot;font-size: 12px;&quot;&gt;Control Core&lt;font style=&quot;font-size: 12px;&quot;&gt;&lt;br&gt;&lt;/font&gt;&lt;/font&gt;&lt;/b&gt;&lt;/font&gt;&lt;/div&gt;" style="rounded=0;whiteSpace=wrap;html=1;" vertex="1" parent="1">
          <mxGeometry x="330" y="110" width="120" height="60" as="geometry" />
        </mxCell>
        <mxCell id="VS5uHlb_sq7G1ENyeqIT-3" value="&lt;font size=&quot;1&quot;&gt;&lt;b style=&quot;font-size: 12px;&quot;&gt;Supervisor Mode&lt;/b&gt;&lt;/font&gt;" style="rounded=0;whiteSpace=wrap;html=1;" vertex="1" parent="1">
          <mxGeometry x="500" y="110" width="120" height="60" as="geometry" />
        </mxCell>
        <mxCell id="VS5uHlb_sq7G1ENyeqIT-5" value="&lt;font style=&quot;font-size: 11px;&quot;&gt;&lt;b&gt;Setting up Modes&lt;/b&gt;&lt;/font&gt;" style="text;html=1;strokeColor=none;fillColor=none;align=center;verticalAlign=middle;whiteSpace=wrap;rounded=0;" vertex="1" parent="1">
          <mxGeometry x="310" y="190" width="60" height="30" as="geometry" />
        </mxCell>
        <mxCell id="VS5uHlb_sq7G1ENyeqIT-6" value="" style="endArrow=none;dashed=1;html=1;rounded=0;" edge="1" parent="1">
          <mxGeometry width="50" height="50" relative="1" as="geometry">
            <mxPoint x="390" y="360" as="sourcePoint" />
            <mxPoint x="389.5" y="170" as="targetPoint" />
            <Array as="points">
              <mxPoint x="389.5" y="190" />
            </Array>
          </mxGeometry>
        </mxCell>
        <mxCell id="VS5uHlb_sq7G1ENyeqIT-8" value="" style="endArrow=none;dashed=1;html=1;rounded=0;" edge="1" parent="1" source="VS5uHlb_sq7G1ENyeqIT-18">
          <mxGeometry width="50" height="50" relative="1" as="geometry">
            <mxPoint x="560" y="545" as="sourcePoint" />
            <mxPoint x="559.5" y="170" as="targetPoint" />
            <Array as="points" />
          </mxGeometry>
        </mxCell>
        <mxCell id="VS5uHlb_sq7G1ENyeqIT-12" value="" style="rounded=0;whiteSpace=wrap;html=1;" vertex="1" parent="1">
          <mxGeometry x="380" y="260" width="20" height="60" as="geometry" />
        </mxCell>
        <mxCell id="VS5uHlb_sq7G1ENyeqIT-13" value="&lt;font style=&quot;font-size: 11px;&quot;&gt;&lt;b&gt;Handler routine&lt;/b&gt;&lt;/font&gt;" style="text;html=1;strokeColor=none;fillColor=none;align=center;verticalAlign=middle;whiteSpace=wrap;rounded=0;" vertex="1" parent="1">
          <mxGeometry x="310" y="275" width="60" height="30" as="geometry" />
        </mxCell>
        <mxCell id="VS5uHlb_sq7G1ENyeqIT-27" style="edgeStyle=orthogonalEdgeStyle;rounded=0;orthogonalLoop=1;jettySize=auto;html=1;exitX=1;exitY=0.75;exitDx=0;exitDy=0;entryX=0;entryY=0.25;entryDx=0;entryDy=0;dashed=1;" edge="1" parent="1" source="VS5uHlb_sq7G1ENyeqIT-12" target="VS5uHlb_sq7G1ENyeqIT-18">
          <mxGeometry relative="1" as="geometry">
            <mxPoint x="400" y="385" as="sourcePoint" />
          </mxGeometry>
        </mxCell>
        <mxCell id="VS5uHlb_sq7G1ENyeqIT-19" value="" style="endArrow=none;dashed=1;html=1;rounded=0;" edge="1" parent="1" target="VS5uHlb_sq7G1ENyeqIT-18">
          <mxGeometry width="50" height="50" relative="1" as="geometry">
            <mxPoint x="560" y="360" as="sourcePoint" />
            <mxPoint x="559.5" y="170" as="targetPoint" />
            <Array as="points">
              <mxPoint x="559.5" y="190" />
            </Array>
          </mxGeometry>
        </mxCell>
        <mxCell id="VS5uHlb_sq7G1ENyeqIT-18" value="" style="rounded=0;whiteSpace=wrap;html=1;" vertex="1" parent="1">
          <mxGeometry x="550" y="310" width="20" height="40" as="geometry" />
        </mxCell>
        <mxCell id="VS5uHlb_sq7G1ENyeqIT-10" value="" style="rounded=0;whiteSpace=wrap;html=1;" vertex="1" parent="1">
          <mxGeometry x="550" y="230" width="20" height="40" as="geometry" />
        </mxCell>
        <mxCell id="VS5uHlb_sq7G1ENyeqIT-20" style="edgeStyle=orthogonalEdgeStyle;rounded=0;orthogonalLoop=1;jettySize=auto;html=1;exitX=1;exitY=0.75;exitDx=0;exitDy=0;entryX=0;entryY=0.25;entryDx=0;entryDy=0;dashed=1;" edge="1" parent="1" source="VS5uHlb_sq7G1ENyeqIT-4" target="VS5uHlb_sq7G1ENyeqIT-10">
          <mxGeometry relative="1" as="geometry">
            <Array as="points">
              <mxPoint x="400" y="230" />
              <mxPoint x="475" y="230" />
              <mxPoint x="475" y="240" />
            </Array>
          </mxGeometry>
        </mxCell>
        <mxCell id="VS5uHlb_sq7G1ENyeqIT-4" value="" style="rounded=0;whiteSpace=wrap;html=1;" vertex="1" parent="1">
          <mxGeometry x="380" y="180" width="20" height="60" as="geometry" />
        </mxCell>
        <mxCell id="VS5uHlb_sq7G1ENyeqIT-22" value="&lt;b&gt;&lt;font color=&quot;#ff0000&quot;&gt;mret&lt;/font&gt;&lt;/b&gt;" style="text;html=1;strokeColor=none;fillColor=none;align=center;verticalAlign=middle;whiteSpace=wrap;rounded=0;" vertex="1" parent="1">
          <mxGeometry x="450" y="210" width="60" height="30" as="geometry" />
        </mxCell>
        <mxCell id="VS5uHlb_sq7G1ENyeqIT-23" style="edgeStyle=orthogonalEdgeStyle;rounded=0;orthogonalLoop=1;jettySize=auto;html=1;exitX=0;exitY=0.75;exitDx=0;exitDy=0;entryX=1.1;entryY=0.133;entryDx=0;entryDy=0;entryPerimeter=0;dashed=1;" edge="1" parent="1" source="VS5uHlb_sq7G1ENyeqIT-10" target="VS5uHlb_sq7G1ENyeqIT-12">
          <mxGeometry relative="1" as="geometry" />
        </mxCell>
        <mxCell id="VS5uHlb_sq7G1ENyeqIT-28" value="&lt;b&gt;&lt;font color=&quot;#ff0000&quot;&gt;mret&lt;/font&gt;&lt;/b&gt;" style="text;html=1;strokeColor=none;fillColor=none;align=center;verticalAlign=middle;whiteSpace=wrap;rounded=0;" vertex="1" parent="1">
          <mxGeometry x="440" y="315" width="60" height="30" as="geometry" />
        </mxCell>
        <mxCell id="VS5uHlb_sq7G1ENyeqIT-31" value="&lt;b&gt;&lt;font color=&quot;#00ff00&quot;&gt;ecall&lt;/font&gt;&lt;/b&gt;" style="text;html=1;strokeColor=none;fillColor=none;align=center;verticalAlign=middle;whiteSpace=wrap;rounded=0;" vertex="1" parent="1">
          <mxGeometry x="450" y="260" width="60" height="30" as="geometry" />
        </mxCell>
        <mxCell id="VS5uHlb_sq7G1ENyeqIT-34" value="" style="endArrow=classic;html=1;rounded=0;entryX=1;entryY=0.5;entryDx=0;entryDy=0;" edge="1" parent="1" target="VS5uHlb_sq7G1ENyeqIT-10">
          <mxGeometry width="50" height="50" relative="1" as="geometry">
            <mxPoint x="640" y="250" as="sourcePoint" />
            <mxPoint x="700" y="250" as="targetPoint" />
          </mxGeometry>
        </mxCell>
        <mxCell id="VS5uHlb_sq7G1ENyeqIT-35" value="" style="endArrow=classic;html=1;rounded=0;entryX=1;entryY=0.5;entryDx=0;entryDy=0;" edge="1" parent="1">
          <mxGeometry width="50" height="50" relative="1" as="geometry">
            <mxPoint x="640" y="340" as="sourcePoint" />
            <mxPoint x="570" y="340" as="targetPoint" />
          </mxGeometry>
        </mxCell>
        <mxCell id="VS5uHlb_sq7G1ENyeqIT-36" value="Start time measurement" style="text;html=1;strokeColor=none;fillColor=none;align=center;verticalAlign=middle;whiteSpace=wrap;rounded=0;" vertex="1" parent="1">
          <mxGeometry x="570" y="220" width="120" height="30" as="geometry" />
        </mxCell>
        <mxCell id="VS5uHlb_sq7G1ENyeqIT-37" value="Stop time measurement" style="text;html=1;strokeColor=none;fillColor=none;align=center;verticalAlign=middle;whiteSpace=wrap;rounded=0;" vertex="1" parent="1">
          <mxGeometry x="570" y="310" width="120" height="30" as="geometry" />
        </mxCell>
      </root>
    </mxGraphModel>
  </diagram>
</mxfile>
